<svg xmlns="http://www.w3.org/2000/svg" width="1080" height="1350" viewBox="0 0 1080 1350"><defs><filter id="shadow" x="-30%" y="-30%" width="160%" height="170%"><feDropShadow dx="0" dy="18" stdDeviation="18" flood-color="#000" flood-opacity=".12"/></filter><linearGradient id="soft" x1="0" y1="0" x2="1" y2="1"><stop stop-color="#fff"/><stop offset="1" stop-color="#e8e8e5"/></linearGradient><style>.display{font-family:Arial Black,Arial,sans-serif;font-weight:900;letter-spacing:-4px}.body{font-family:Arial,sans-serif}.ui{font-family:Arial,sans-serif}</style></defs><rect width="1080" height="1350" fill="#F7F7F5"/><g class="ui"><path d="M72 94h38m14 0h38m14 0h38" stroke="#FF4B0B" stroke-width="9"/><text x="72" y="1320" font-size="18" font-weight="700" fill="#666663">GLOBALIZAME</text><rect x="934" y="42" width="102" height="66" rx="33" fill="#747471"/><text x="985" y="84" text-anchor="middle" font-size="27" fill="white">2/6</text><path d="M908 124l20 20m-20 0 20-20m-10-10v40m-20-20h40" stroke="#FF4B0B" stroke-width="7"/><path d="M870 1280h112m-22-18 22 18-22 18" fill="none" stroke="#FF4B0B" stroke-width="7" stroke-linecap="round" stroke-linejoin="round"/></g><text x="70" y="265" class="display" font-size="82" fill="#FF4B0B">EL PROBLEMA NO</text><text x="70" y="340.44" class="display" font-size="82" fill="#090909">GRITA. GOTEA</text><g filter="url(#shadow)"><rect x="70" y="600" width="940" height="430" rx="34" fill="#FFFFFF" stroke="#D7D7D2"/><circle cx="245" cy="800" r="82" fill="#eee"/><circle cx="540" cy="800" r="82" fill="#fff" stroke="#FF4B0B" stroke-width="8"/><circle cx="835" cy="800" r="82" fill="#fff"/><path d="M327 800h125m176 0h125" stroke="#FF4B0B" stroke-width="12"/><path d="M430 778l24 22-24 22m300-44 24 22-24 22" fill="none" stroke="#FF4B0B" stroke-width="12"/><text x="245" y="815" text-anchor="middle" font-size="58">⌕</text><text x="540" y="819" text-anchor="middle" font-size="62">×</text><text x="835" y="820" text-anchor="middle" font-size="64">€</text><text x="245" y="930" text-anchor="middle" class="body" font-size="28">Entra</text><text x="540" y="930" text-anchor="middle" class="body" font-size="28">Se atasca</text><text x="835" y="930" text-anchor="middle" class="body" font-size="28">Cuesta</text></g><text x="70" y="1110" class="body" font-size="32" font-weight="700" fill="#090909">Cada goteo pequeño acaba vaciando la semana.</text></svg>