<svg xmlns="http://www.w3.org/2000/svg" width="1080" height="1350" viewBox="0 0 1080 1350"><defs><filter id="shadow" x="-30%" y="-30%" width="160%" height="170%"><feDropShadow dx="0" dy="18" stdDeviation="18" flood-color="#000" flood-opacity=".12"/></filter><linearGradient id="soft" x1="0" y1="0" x2="1" y2="1"><stop stop-color="#fff"/><stop offset="1" stop-color="#e8e8e5"/></linearGradient><style>.display{font-family:Arial Black,Arial,sans-serif;font-weight:900;letter-spacing:-4px}.body{font-family:Arial,sans-serif}.ui{font-family:Arial,sans-serif}</style></defs><rect width="1080" height="1350" fill="#F7F7F5"/><g class="ui"><path d="M72 94h38m14 0h38m14 0h38" stroke="#FF4B0B" stroke-width="9"/><text x="72" y="1320" font-size="18" font-weight="700" fill="#666663">GLOBALIZAME</text><rect x="934" y="42" width="102" height="66" rx="33" fill="#747471"/><text x="985" y="84" text-anchor="middle" font-size="27" fill="white">3/7</text><path d="M908 124l20 20m-20 0 20-20m-10-10v40m-20-20h40" stroke="#FF4B0B" stroke-width="7"/><path d="M870 1280h112m-22-18 22 18-22 18" fill="none" stroke="#FF4B0B" stroke-width="7" stroke-linecap="round" stroke-linejoin="round"/></g><text x="70" y="260" class="display" font-size="88" fill="#090909">ESAS 200 HORAS</text><text x="70" y="340.96000000000004" class="display" font-size="88" fill="#FF4B0B">EQUIVALEN A UNOS</text><text x="70" y="421.92" class="display" font-size="88" fill="#090909">3.000€ AL AÑO POR</text><text x="70" y="502.88" class="display" font-size="88" fill="#090909">AUTÓNOMO</text><g filter="url(#shadow)"><rect x="180" y="640" width="720" height="410" rx="34" fill="#FFFFFF" stroke="#D7D7D2"/><path d="M310 880a230 230 0 0 1 460 0" fill="none" stroke="#ddd" stroke-width="55" stroke-linecap="round"/><path d="M310 880a230 230 0 0 1 360-190" fill="none" stroke="#FF4B0B" stroke-width="55" stroke-linecap="round"/><path d="M540 880l155-110" stroke="#111" stroke-width="18" stroke-linecap="round"/><circle cx="540" cy="880" r="32" fill="#111"/><text x="540" y="990" text-anchor="middle" class="display" font-size="58" fill="#090909">200 horas</text></g></svg>