<svg xmlns="http://www.w3.org/2000/svg" width="1080" height="1350" viewBox="0 0 1080 1350"><defs><filter id="shadow" x="-30%" y="-30%" width="160%" height="170%"><feDropShadow dx="0" dy="18" stdDeviation="18" flood-color="#000" flood-opacity=".12"/></filter><linearGradient id="soft" x1="0" y1="0" x2="1" y2="1"><stop stop-color="#fff"/><stop offset="1" stop-color="#e8e8e5"/></linearGradient><style>.display{font-family:Arial Black,Arial,sans-serif;font-weight:900;letter-spacing:-4px}.body{font-family:Arial,sans-serif}.ui{font-family:Arial,sans-serif}</style></defs><rect width="1080" height="1350" fill="#F7F7F5"/><g class="ui"><path d="M72 94h38m14 0h38m14 0h38" stroke="#FF4B0B" stroke-width="9"/><text x="72" y="1320" font-size="18" font-weight="700" fill="#666663">GLOBALIZAME</text><rect x="934" y="42" width="102" height="66" rx="33" fill="#747471"/><text x="985" y="84" text-anchor="middle" font-size="27" fill="white">1/7</text><path d="M908 124l20 20m-20 0 20-20m-10-10v40m-20-20h40" stroke="#FF4B0B" stroke-width="7"/><path d="M870 1280h112m-22-18 22 18-22 18" fill="none" stroke="#FF4B0B" stroke-width="7" stroke-linecap="round" stroke-linejoin="round"/></g><rect x="70" y="155" width="190" height="54" rx="27" fill="#FF4B0B"/><text x="90" y="190" class="body" font-size="21" font-weight="800" fill="white">MIRA ESTO</text><text x="70" y="350" class="display" font-size="98" fill="#090909">PRIMERO SISTEMA.</text><text x="70" y="440.16" class="display" font-size="98" fill="#FF4B0B">LUEGO</text><text x="70" y="530.32" class="display" font-size="98" fill="#090909">HERRAMIENTA</text><text x="74" y="690" class="body" font-size="34" font-weight="700" fill="#090909">El mismo robot da resultados</text><text x="74" y="732.5" class="body" font-size="34" font-weight="700" fill="#090909">opuestos según lo que hay debajo.</text><g aria-label="single protagonist scene"><g transform="translate(575 720)"><g transform="translate(0 0) scale(0.72)" filter="url(#shadow)"><ellipse cx="150" cy="160" rx="135" ry="112" fill="url(#soft)" stroke="#ddd"/><rect x="55" y="95" width="190" height="115" rx="55" fill="#101010"/><path d="M130 135v40m-20-20h40" stroke="#FF4B0B" stroke-width="14"/><circle cx="238" cy="150" r="28" fill="#eee" stroke="#FF4B0B" stroke-width="6"/><rect x="112" y="262" width="80" height="78" rx="28" fill="#111"/><rect x="42" y="325" width="218" height="250" rx="82" fill="url(#soft)" stroke="#ddd"/><circle cx="151" cy="417" r="49" fill="#fff" stroke="#FF4B0B" stroke-width="7"/><path d="M151 386v62m-31-31h62" stroke="#FF4B0B" stroke-width="11"/><path d="M55 370-30 470m275-100 85-100" stroke="#e9e9e6" stroke-width="54" stroke-linecap="round"/><path d="M55 560 20 700m215-140 35 140" stroke="#e9e9e6" stroke-width="64" stroke-linecap="round"/></g></g><g transform="rotate(-14 500 980)" filter="url(#shadow)"><rect x="360" y="900" width="220" height="280" rx="28" fill="white" stroke="#D7D7D2"/><path d="M400 960h140m-140 55h110m-110 55h130" stroke="#FF4B0B" stroke-width="12" stroke-linecap="round"/></g><path d="M520 850c-90 70-110 155-70 250" fill="none" stroke="#FF4B0B" stroke-width="8" stroke-dasharray="18 18"/></g></svg>