<svg xmlns="http://www.w3.org/2000/svg" width="1080" height="1350" viewBox="0 0 1080 1350"><defs><filter id="shadow" x="-30%" y="-30%" width="160%" height="170%"><feDropShadow dx="0" dy="18" stdDeviation="18" flood-color="#000" flood-opacity=".12"/></filter><linearGradient id="soft" x1="0" y1="0" x2="1" y2="1"><stop stop-color="#fff"/><stop offset="1" stop-color="#e8e8e5"/></linearGradient><style>.display{font-family:Arial Black,Arial,sans-serif;font-weight:900;letter-spacing:-4px}.body{font-family:Arial,sans-serif}.ui{font-family:Arial,sans-serif}</style></defs><rect width="1080" height="1350" fill="#F7F7F5"/><g class="ui"><path d="M72 94h38m14 0h38m14 0h38" stroke="#FF4B0B" stroke-width="9"/><text x="72" y="1320" font-size="18" font-weight="700" fill="#666663">GLOBALIZAME</text><rect x="934" y="42" width="102" height="66" rx="33" fill="#747471"/><text x="985" y="84" text-anchor="middle" font-size="27" fill="white">2/7</text><path d="M908 124l20 20m-20 0 20-20m-10-10v40m-20-20h40" stroke="#FF4B0B" stroke-width="7"/><path d="M870 1280h112m-22-18 22 18-22 18" fill="none" stroke="#FF4B0B" stroke-width="7" stroke-linecap="round" stroke-linejoin="round"/></g><text x="70" y="250" class="display" font-size="80" fill="#FF4B0B">NO EMPIECES POR LA</text><text x="70" y="323.6" class="display" font-size="80" fill="#090909">HERRAMIENTA</text><g filter="url(#shadow)"><rect x="60" y="620" width="960" height="450" rx="34" fill="#FFFFFF" stroke="#D7D7D2"/><rect x="110" y="690" width="350" height="300" rx="30" fill="#eee"/><rect x="620" y="690" width="350" height="300" rx="30" fill="#fff" stroke="#FF4B0B" stroke-width="5"/><text x="285" y="770" text-anchor="middle" class="body" font-size="30">Sin sistema</text><text x="795" y="770" text-anchor="middle" class="body" font-size="30">Con criterio</text><text x="285" y="900" text-anchor="middle" font-size="100" fill="#777">×</text><text x="795" y="900" text-anchor="middle" font-size="100" fill="#FF4B0B">✓</text><path d="M475 850h120" stroke="#FF4B0B" stroke-width="10"/><path d="M575 825l25 25-25 25" fill="none" stroke="#FF4B0B" stroke-width="10"/></g></svg>