<svg xmlns="http://www.w3.org/2000/svg" width="1080" height="1350" viewBox="0 0 1080 1350"><defs><filter id="shadow" x="-30%" y="-30%" width="160%" height="170%"><feDropShadow dx="0" dy="18" stdDeviation="18" flood-color="#000" flood-opacity=".12"/></filter><linearGradient id="soft" x1="0" y1="0" x2="1" y2="1"><stop stop-color="#fff"/><stop offset="1" stop-color="#e8e8e5"/></linearGradient><style>.display{font-family:Arial Black,Arial,sans-serif;font-weight:900;letter-spacing:-4px}.body{font-family:Arial,sans-serif}.ui{font-family:Arial,sans-serif}</style></defs><rect width="1080" height="1350" fill="#F7F7F5"/><g class="ui"><path d="M72 94h38m14 0h38m14 0h38" stroke="#FF4B0B" stroke-width="9"/><text x="72" y="1320" font-size="18" font-weight="700" fill="#666663">GLOBALIZAME</text><rect x="934" y="42" width="102" height="66" rx="33" fill="#747471"/><text x="985" y="84" text-anchor="middle" font-size="27" fill="white">7/7</text><path d="M908 124l20 20m-20 0 20-20m-10-10v40m-20-20h40" stroke="#FF4B0B" stroke-width="7"/><path d="M870 1280h112m-22-18 22 18-22 18" fill="none" stroke="#FF4B0B" stroke-width="7" stroke-linecap="round" stroke-linejoin="round"/></g><rect x="58" y="150" width="230" height="58" rx="29" fill="#FF4B0B"/><text x="173" y="188" text-anchor="middle" class="body" font-size="23" font-weight="800" fill="white">EL RESULTADO</text><text x="70" y="335" class="display" font-size="90" fill="#090909">COMENTA CÁLCULO</text><text x="74" y="700" class="body" font-size="34" font-weight="700" fill="#090909">Y te envío la hoja para calcularlo con tus</text><text x="74" y="742.5" class="body" font-size="34" font-weight="700" fill="#090909">números.</text><g filter="url(#shadow)"><rect x="530" y="760" width="460" height="360" rx="34" fill="#FFFFFF" stroke="#D7D7D2"/><text x="760" y="855" text-anchor="middle" class="body" font-size="31">Tu siguiente cifra</text><text x="760" y="980" text-anchor="middle" class="display" font-size="72" fill="#FF4B0B">AQUÍ</text><path d="M650 1050h220" stroke="#D7D7D2" stroke-width="4"/></g><g transform="translate(70 820) scale(0.52)" filter="url(#shadow)"><ellipse cx="150" cy="160" rx="135" ry="112" fill="url(#soft)" stroke="#ddd"/><rect x="55" y="95" width="190" height="115" rx="55" fill="#101010"/><path d="M130 135v40m-20-20h40" stroke="#FF4B0B" stroke-width="14"/><circle cx="238" cy="150" r="28" fill="#eee" stroke="#FF4B0B" stroke-width="6"/><rect x="112" y="262" width="80" height="78" rx="28" fill="#111"/><rect x="42" y="325" width="218" height="250" rx="82" fill="url(#soft)" stroke="#ddd"/><circle cx="151" cy="417" r="49" fill="#fff" stroke="#FF4B0B" stroke-width="7"/><path d="M151 386v62m-31-31h62" stroke="#FF4B0B" stroke-width="11"/><path d="M55 370-30 470m275-100 85-100" stroke="#e9e9e6" stroke-width="54" stroke-linecap="round"/><path d="M55 560 20 700m215-140 35 140" stroke="#e9e9e6" stroke-width="64" stroke-linecap="round"/></g></svg>