<svg xmlns="http://www.w3.org/2000/svg" width="1080" height="1350" viewBox="0 0 1080 1350"><defs><filter id="shadow" x="-30%" y="-30%" width="160%" height="170%"><feDropShadow dx="0" dy="18" stdDeviation="18" flood-color="#000" flood-opacity=".12"/></filter><linearGradient id="soft" x1="0" y1="0" x2="1" y2="1"><stop stop-color="#fff"/><stop offset="1" stop-color="#e8e8e5"/></linearGradient><style>.display{font-family:Arial Black,Arial,sans-serif;font-weight:900;letter-spacing:-4px}.body{font-family:Arial,sans-serif}.ui{font-family:Arial,sans-serif}</style></defs><rect width="1080" height="1350" fill="#F7F7F5"/><g class="ui"><path d="M72 94h38m14 0h38m14 0h38" stroke="#FF4B0B" stroke-width="9"/><text x="72" y="1320" font-size="18" font-weight="700" fill="#666663">GLOBALIZAME</text><rect x="934" y="42" width="102" height="66" rx="33" fill="#747471"/><text x="985" y="84" text-anchor="middle" font-size="27" fill="white">1/7</text><path d="M908 124l20 20m-20 0 20-20m-10-10v40m-20-20h40" stroke="#FF4B0B" stroke-width="7"/><path d="M870 1280h112m-22-18 22 18-22 18" fill="none" stroke="#FF4B0B" stroke-width="7" stroke-linecap="round" stroke-linejoin="round"/></g><rect x="70" y="155" width="190" height="54" rx="27" fill="#FF4B0B"/><text x="90" y="190" class="body" font-size="21" font-weight="800" fill="white">ERROR COMÚN</text><text x="70" y="350" class="display" font-size="98" fill="#090909">10 DÍAS AL MES</text><text x="70" y="440.16" class="display" font-size="98" fill="#FF4B0B">EN PAPELEO</text><text x="74" y="690" class="body" font-size="34" font-weight="700" fill="#090909">Antes de automatizar, descubre qué</text><text x="74" y="732.5" class="body" font-size="34" font-weight="700" fill="#090909">está consumiendo tu tiempo.</text><g transform="translate(540 750)" filter="url(#shadow)"><rect width="420" height="360" rx="90" fill="url(#soft)" stroke="#D7D7D2"/><circle cx="210" cy="180" r="105" fill="#111"/><path d="M150 180h120m-60-60v120" stroke="#FF4B0B" stroke-width="18" stroke-linecap="round"/></g></svg>