<svg xmlns="http://www.w3.org/2000/svg" width="1080" height="1350" viewBox="0 0 1080 1350"><defs><filter id="shadow" x="-30%" y="-30%" width="160%" height="170%"><feDropShadow dx="0" dy="18" stdDeviation="18" flood-color="#000" flood-opacity=".12"/></filter><linearGradient id="soft" x1="0" y1="0" x2="1" y2="1"><stop stop-color="#fff"/><stop offset="1" stop-color="#e8e8e5"/></linearGradient><style>.display{font-family:Arial Black,Arial,sans-serif;font-weight:900;letter-spacing:-4px}.body{font-family:Arial,sans-serif}.ui{font-family:Arial,sans-serif}</style></defs><rect width="1080" height="1350" fill="#F7F7F5"/><g class="ui"><path d="M72 94h38m14 0h38m14 0h38" stroke="#FF4B0B" stroke-width="9"/><text x="72" y="1320" font-size="18" font-weight="700" fill="#666663">GLOBALIZAME</text><rect x="934" y="42" width="102" height="66" rx="33" fill="#747471"/><text x="985" y="84" text-anchor="middle" font-size="27" fill="white">5/6</text><path d="M908 124l20 20m-20 0 20-20m-10-10v40m-20-20h40" stroke="#FF4B0B" stroke-width="7"/><path d="M870 1280h112m-22-18 22 18-22 18" fill="none" stroke="#FF4B0B" stroke-width="7" stroke-linecap="round" stroke-linejoin="round"/></g><text x="70" y="245" class="display" font-size="80" fill="#FF4B0B">MIRA DÓNDE SE REPITE</text><g filter="url(#shadow)"><rect x="90" y="610" width="900" height="120" rx="34" fill="#FFFFFF" stroke="#D7D7D2"/><circle cx="160" cy="670" r="30" fill="#eee"/><path d="M146 670l11 11 22-27" fill="none" stroke="#666663" stroke-width="8"/><text x="220" y="682" class="body" font-size="31">Tareas que vuelven</text></g><g filter="url(#shadow)"><rect x="90" y="770" width="900" height="120" rx="34" fill="#FFFFFF" stroke="#D7D7D2"/><circle cx="160" cy="830" r="30" fill="#eee"/><path d="M146 830l11 11 22-27" fill="none" stroke="#666663" stroke-width="8"/><text x="220" y="842" class="body" font-size="31">Interrupciones constantes</text></g><g filter="url(#shadow)"><rect x="90" y="930" width="900" height="120" rx="34" fill="#FFFFFF" stroke="#D7D7D2"/><circle cx="160" cy="990" r="30" fill="#FF4B0B"/><path d="M146 990l11 11 22-27" fill="none" stroke="white" stroke-width="8"/><text x="220" y="1002" class="body" font-size="31">Oportunidades sin respuesta</text></g></svg>