<svg xmlns="http://www.w3.org/2000/svg" width="1080" height="1350" viewBox="0 0 1080 1350" fill="#F7F4EC">
    <defs>
    <radialGradient id="glow" cx="50%" cy="42%" r="70%">
      <stop offset="0%" stop-color="#8DFF24" stop-opacity=".55"/>
      <stop offset="42%" stop-color="#6129FF" stop-opacity=".24"/>
      <stop offset="100%" stop-color="#070707" stop-opacity="0"/>
    </radialGradient>
    <linearGradient id="blueDrench" x1="0" y1="0" x2="1" y2="1">
      <stop offset="0%" stop-color="#008CEB"/>
      <stop offset="58%" stop-color="#00A7FF"/>
      <stop offset="100%" stop-color="#0053B8"/>
    </linearGradient>
    <linearGradient id="paperFade" x1="0" y1="0" x2="0" y2="1">
      <stop offset="0%" stop-color="#F8F6EF"/>
      <stop offset="100%" stop-color="#D9D1C4"/>
    </linearGradient>
    <filter id="softShadow" x="-30%" y="-30%" width="160%" height="160%">
      <feDropShadow dx="0" dy="34" stdDeviation="34" flood-color="#000" flood-opacity=".55"/>
    </filter>
    <filter id="hardShadow" x="-20%" y="-20%" width="150%" height="150%">
      <feDropShadow dx="18" dy="24" stdDeviation="0" flood-color="#000" flood-opacity=".25"/>
    </filter>
    <filter id="grain">
      <feTurbulence type="fractalNoise" baseFrequency=".9" numOctaves="3" seed="12"/>
      <feColorMatrix type="saturate" values="0"/>
      <feComponentTransfer><feFuncA type="table" tableValues="0 .12"/></feComponentTransfer>
    </filter>
    <pattern id="grid" width="72" height="72" patternUnits="userSpaceOnUse">
      <path d="M72 0H0V72" fill="none" stroke="#FFFFFF" stroke-opacity=".12" stroke-width="1"/>
    </pattern>
  </defs><style>
    .display{font-family:"Arial Black","Impact","Aptos Display",Arial,sans-serif;font-weight:900;letter-spacing:-.055em}
    .condensed{font-family:"Arial Narrow","Roboto Condensed","Aptos",Arial,sans-serif;font-weight:900;letter-spacing:-.04em}
    .body{font-family:Aptos,Arial,sans-serif;font-weight:600}
    .small{font-family:Aptos,Arial,sans-serif;font-weight:700}
    .accent{fill:#8DFF24}
    .dark{fill:#070707}
    .paper{fill:#EDE8DA}
    .stroke{stroke:#8DFF24;stroke-width:10;fill:none;stroke-linecap:round;stroke-linejoin:round}
  </style><rect width="1080" height="1350" fill="url(#paperFade)"/><rect width="1080" height="1350" fill="url(#grid)" opacity=".26"/><rect width="1080" height="1350" filter="url(#grain)" opacity=".55"/><g>
    <text x="64" y="74" class="body" font-size="25" fill="#070707">Mario Ruiz</text>
    <text x="64" y="105" class="small" font-size="18" fill="#2A2A2A">Globalizame · automatización que contesta</text>
    <text x="1014" y="88" text-anchor="end" class="display" font-size="35" fill="#070707">03</text>
    <rect x="916" y="107" width="98" height="8" rx="4" fill="#8DFF24"/>
  </g>
    <text x="63" y="235" class="condensed" font-size="78" fill="#070707">Cada llamada perdida</text>
<text x="63" y="303.64" class="condensed" font-size="78" fill="#070707">lleva una etiqueta</text>
    <text x="66" y="420" class="body" font-size="31" fill="#252525"><tspan x="66" dy="0">150 € de media que se van</tspan></text>
    <g transform="translate(220 575)">
      <g transform="translate(0 0) scale(0.64)" filter="url(#softShadow)">
    <path d="M82 4C43 12 14 44 21 83c27 158 126 285 279 349 38 16 82-4 99-42l36-82c10-23 1-50-21-62l-88-48c-20-11-45-6-59 12l-35 43c-46-31-84-70-112-119l47-31c20-13 28-38 18-60L148 26C137 7 109-2 82 4Z" fill="#070707"/>
    <path d="M304 435C448 548 592 572 755 507" class="stroke" opacity=".85"/>
  </g>
    </g>
    <path d="M480 680C590 610 710 660 796 780" stroke="#070707" stroke-width="6" fill="none" stroke-dasharray="14 18"/>
    <g transform="translate(610 705) rotate(-9)" filter="url(#hardShadow)">
      <path d="M0 0h350v220H0l-78-110Z" fill="#8DFF24"/>
      <circle cx="24" cy="110" r="18" fill="#070707"/>
      <text x="180" y="142" text-anchor="middle" class="display dark" font-size="96">150€</text>
    </g>
    <text x="64" y="1238" class="small" font-size="22" fill="#333">Fuente: gestiondellamadas.com</text>
  </svg>