<svg xmlns="http://www.w3.org/2000/svg" width="1080" height="1350" viewBox="0 0 1080 1350">
  <style>
  .display{font-family:"Aptos Display",Arial,sans-serif;font-weight:800;letter-spacing:-3px;fill:#F5F5F2}
  .headline{font-family:"Aptos Display",Arial,sans-serif;font-weight:750;letter-spacing:-2px;fill:#F5F5F2}
  .body{font-family:Aptos,Arial,sans-serif;font-weight:500;fill:#F5F5F2}
  .meta{font-family:Aptos,Arial,sans-serif;font-size:22px;font-weight:500;fill:#F5F5F2}
  .strong{font-weight:700}.muted{fill:#A7A7A2}.green{fill:#86CA28}
  .count{font-family:"Aptos Display",Arial,sans-serif;font-size:34px;font-weight:800;fill:#F5F5F2}
  .source{font-family:Aptos,Arial,sans-serif;font-size:19px;fill:#A7A7A2}
  .line{stroke:#86CA28;stroke-width:5;fill:none}.dim{stroke:#444444;stroke-width:4;fill:none}
  </style><rect width="1080" height="1350" fill="#232323"/>
  <rect x="40" y="40" width="1000" height="1270" fill="none" stroke="#444444"/>
  <text x="88" y="91" class="meta strong">Mario Ruiz</text>
  <text x="88" y="120" class="meta muted">Founder · Globalizame</text>
  <text x="992" y="96" text-anchor="end" class="count">04</text>
  <rect x="924" y="116" width="68" height="4" fill="#86CA28"/>
  <text x="96" y="256" text-anchor="start" class="headline" font-size="78">43 de cada 100</text>
<text x="96" y="330.88" text-anchor="start" class="headline" font-size="78">sin contestar</text>
  <text x="96" y="440.76" class="body muted" font-size="38"><tspan x="96" dy="0">En un restaurante</tspan></text><rect x="124" y="520" width="40" height="40" rx="4" fill="#86CA28"/><rect x="190" y="520" width="40" height="40" rx="4" fill="#86CA28"/><rect x="256" y="520" width="40" height="40" rx="4" fill="#86CA28"/><rect x="322" y="520" width="40" height="40" rx="4" fill="#86CA28"/><rect x="388" y="520" width="40" height="40" rx="4" fill="#86CA28"/><rect x="454" y="520" width="40" height="40" rx="4" fill="#86CA28"/><rect x="520" y="520" width="40" height="40" rx="4" fill="#86CA28"/><rect x="586" y="520" width="40" height="40" rx="4" fill="#86CA28"/><rect x="652" y="520" width="40" height="40" rx="4" fill="#86CA28"/><rect x="718" y="520" width="40" height="40" rx="4" fill="#86CA28"/><rect x="124" y="586" width="40" height="40" rx="4" fill="#86CA28"/><rect x="190" y="586" width="40" height="40" rx="4" fill="#86CA28"/><rect x="256" y="586" width="40" height="40" rx="4" fill="#86CA28"/><rect x="322" y="586" width="40" height="40" rx="4" fill="#86CA28"/><rect x="388" y="586" width="40" height="40" rx="4" fill="#86CA28"/><rect x="454" y="586" width="40" height="40" rx="4" fill="#86CA28"/><rect x="520" y="586" width="40" height="40" rx="4" fill="#86CA28"/><rect x="586" y="586" width="40" height="40" rx="4" fill="#86CA28"/><rect x="652" y="586" width="40" height="40" rx="4" fill="#86CA28"/><rect x="718" y="586" width="40" height="40" rx="4" fill="#86CA28"/><rect x="124" y="652" width="40" height="40" rx="4" fill="#86CA28"/><rect x="190" y="652" width="40" height="40" rx="4" fill="#86CA28"/><rect x="256" y="652" width="40" height="40" rx="4" fill="#86CA28"/><rect x="322" y="652" width="40" height="40" rx="4" fill="#86CA28"/><rect x="388" y="652" width="40" height="40" rx="4" fill="#86CA28"/><rect x="454" y="652" width="40" height="40" rx="4" fill="#86CA28"/><rect x="520" y="652" width="40" height="40" rx="4" fill="#86CA28"/><rect x="586" y="652" width="40" height="40" rx="4" fill="#86CA28"/><rect x="652" y="652" width="40" height="40" rx="4" fill="#86CA28"/><rect x="718" y="652" width="40" height="40" rx="4" fill="#86CA28"/><rect x="124" y="718" width="40" height="40" rx="4" fill="#86CA28"/><rect x="190" y="718" width="40" height="40" rx="4" fill="#86CA28"/><rect x="256" y="718" width="40" height="40" rx="4" fill="#86CA28"/><rect x="322" y="718" width="40" height="40" rx="4" fill="#86CA28"/><rect x="388" y="718" width="40" height="40" rx="4" fill="#86CA28"/><rect x="454" y="718" width="40" height="40" rx="4" fill="#86CA28"/><rect x="520" y="718" width="40" height="40" rx="4" fill="#86CA28"/><rect x="586" y="718" width="40" height="40" rx="4" fill="#86CA28"/><rect x="652" y="718" width="40" height="40" rx="4" fill="#86CA28"/><rect x="718" y="718" width="40" height="40" rx="4" fill="#86CA28"/><rect x="124" y="784" width="40" height="40" rx="4" fill="#86CA28"/><rect x="190" y="784" width="40" height="40" rx="4" fill="#86CA28"/><rect x="256" y="784" width="40" height="40" rx="4" fill="#86CA28"/><rect x="322" y="784" width="40" height="40" rx="4" fill="#86CA28"/><rect x="388" y="784" width="40" height="40" rx="4" fill="#86CA28"/><rect x="454" y="784" width="40" height="40" rx="4" fill="#86CA28"/><rect x="520" y="784" width="40" height="40" rx="4" fill="#86CA28"/><rect x="586" y="784" width="40" height="40" rx="4" fill="#86CA28"/><rect x="652" y="784" width="40" height="40" rx="4" fill="#86CA28"/><rect x="718" y="784" width="40" height="40" rx="4" fill="#86CA28"/><rect x="124" y="850" width="40" height="40" rx="4" fill="#86CA28"/><rect x="190" y="850" width="40" height="40" rx="4" fill="#86CA28"/><rect x="256" y="850" width="40" height="40" rx="4" fill="#86CA28"/><rect x="322" y="850" width="40" height="40" rx="4" fill="#86CA28"/><rect x="388" y="850" width="40" height="40" rx="4" fill="#86CA28"/><rect x="454" y="850" width="40" height="40" rx="4" fill="#86CA28"/><rect x="520" y="850" width="40" height="40" rx="4" fill="#86CA28"/><rect x="586" y="850" width="40" height="40" rx="4" fill="#444444"/><rect x="652" y="850" width="40" height="40" rx="4" fill="#444444"/><rect x="718" y="850" width="40" height="40" rx="4" fill="#444444"/><rect x="124" y="916" width="40" height="40" rx="4" fill="#444444"/><rect x="190" y="916" width="40" height="40" rx="4" fill="#444444"/><rect x="256" y="916" width="40" height="40" rx="4" fill="#444444"/><rect x="322" y="916" width="40" height="40" rx="4" fill="#444444"/><rect x="388" y="916" width="40" height="40" rx="4" fill="#444444"/><rect x="454" y="916" width="40" height="40" rx="4" fill="#444444"/><rect x="520" y="916" width="40" height="40" rx="4" fill="#444444"/><rect x="586" y="916" width="40" height="40" rx="4" fill="#444444"/><rect x="652" y="916" width="40" height="40" rx="4" fill="#444444"/><rect x="718" y="916" width="40" height="40" rx="4" fill="#444444"/><rect x="124" y="982" width="40" height="40" rx="4" fill="#444444"/><rect x="190" y="982" width="40" height="40" rx="4" fill="#444444"/><rect x="256" y="982" width="40" height="40" rx="4" fill="#444444"/><rect x="322" y="982" width="40" height="40" rx="4" fill="#444444"/><rect x="388" y="982" width="40" height="40" rx="4" fill="#444444"/><rect x="454" y="982" width="40" height="40" rx="4" fill="#444444"/><rect x="520" y="982" width="40" height="40" rx="4" fill="#444444"/><rect x="586" y="982" width="40" height="40" rx="4" fill="#444444"/><rect x="652" y="982" width="40" height="40" rx="4" fill="#444444"/><rect x="718" y="982" width="40" height="40" rx="4" fill="#444444"/><rect x="124" y="1048" width="40" height="40" rx="4" fill="#444444"/><rect x="190" y="1048" width="40" height="40" rx="4" fill="#444444"/><rect x="256" y="1048" width="40" height="40" rx="4" fill="#444444"/><rect x="322" y="1048" width="40" height="40" rx="4" fill="#444444"/><rect x="388" y="1048" width="40" height="40" rx="4" fill="#444444"/><rect x="454" y="1048" width="40" height="40" rx="4" fill="#444444"/><rect x="520" y="1048" width="40" height="40" rx="4" fill="#444444"/><rect x="586" y="1048" width="40" height="40" rx="4" fill="#444444"/><rect x="652" y="1048" width="40" height="40" rx="4" fill="#444444"/><rect x="718" y="1048" width="40" height="40" rx="4" fill="#444444"/><rect x="124" y="1114" width="40" height="40" rx="4" fill="#444444"/><rect x="190" y="1114" width="40" height="40" rx="4" fill="#444444"/><rect x="256" y="1114" width="40" height="40" rx="4" fill="#444444"/><rect x="322" y="1114" width="40" height="40" rx="4" fill="#444444"/><rect x="388" y="1114" width="40" height="40" rx="4" fill="#444444"/><rect x="454" y="1114" width="40" height="40" rx="4" fill="#444444"/><rect x="520" y="1114" width="40" height="40" rx="4" fill="#444444"/><rect x="586" y="1114" width="40" height="40" rx="4" fill="#444444"/><rect x="652" y="1114" width="40" height="40" rx="4" fill="#444444"/><rect x="718" y="1114" width="40" height="40" rx="4" fill="#444444"/><path d="M815 510 H875 V1140 H815" class="line"/><text x="902" y="850" class="display green" font-size="58">43</text><text x="96" y="1237" class="source">Fuente sectorial · 2026</text>
  </svg>