<svg xmlns="http://www.w3.org/2000/svg" width="1080" height="1350" viewBox="0 0 1080 1350" fill="#F7F4EC">
    <defs>
    <radialGradient id="glow" cx="50%" cy="42%" r="70%">
      <stop offset="0%" stop-color="#8DFF24" stop-opacity=".55"/>
      <stop offset="42%" stop-color="#6129FF" stop-opacity=".24"/>
      <stop offset="100%" stop-color="#070707" stop-opacity="0"/>
    </radialGradient>
    <linearGradient id="blueDrench" x1="0" y1="0" x2="1" y2="1">
      <stop offset="0%" stop-color="#008CEB"/>
      <stop offset="58%" stop-color="#00A7FF"/>
      <stop offset="100%" stop-color="#0053B8"/>
    </linearGradient>
    <linearGradient id="paperFade" x1="0" y1="0" x2="0" y2="1">
      <stop offset="0%" stop-color="#F8F6EF"/>
      <stop offset="100%" stop-color="#D9D1C4"/>
    </linearGradient>
    <filter id="softShadow" x="-30%" y="-30%" width="160%" height="160%">
      <feDropShadow dx="0" dy="34" stdDeviation="34" flood-color="#000" flood-opacity=".55"/>
    </filter>
    <filter id="hardShadow" x="-20%" y="-20%" width="150%" height="150%">
      <feDropShadow dx="18" dy="24" stdDeviation="0" flood-color="#000" flood-opacity=".25"/>
    </filter>
    <filter id="grain">
      <feTurbulence type="fractalNoise" baseFrequency=".9" numOctaves="3" seed="12"/>
      <feColorMatrix type="saturate" values="0"/>
      <feComponentTransfer><feFuncA type="table" tableValues="0 .12"/></feComponentTransfer>
    </filter>
    <pattern id="grid" width="72" height="72" patternUnits="userSpaceOnUse">
      <path d="M72 0H0V72" fill="none" stroke="#FFFFFF" stroke-opacity=".12" stroke-width="1"/>
    </pattern>
  </defs><style>
    .display{font-family:"Arial Black","Impact","Aptos Display",Arial,sans-serif;font-weight:900;letter-spacing:-.055em}
    .condensed{font-family:"Arial Narrow","Roboto Condensed","Aptos",Arial,sans-serif;font-weight:900;letter-spacing:-.04em}
    .body{font-family:Aptos,Arial,sans-serif;font-weight:600}
    .small{font-family:Aptos,Arial,sans-serif;font-weight:700}
    .accent{fill:#8DFF24}
    .dark{fill:#070707}
    .paper{fill:#EDE8DA}
    .stroke{stroke:#8DFF24;stroke-width:10;fill:none;stroke-linecap:round;stroke-linejoin:round}
  </style><rect width="1080" height="1350" fill="#070707"/><circle cx="740" cy="470" r="520" fill="url(#glow)" opacity=".72"/><rect width="1080" height="1350" filter="url(#grain)" opacity=".62"/><g>
    <text x="64" y="74" class="body" font-size="25" fill="#F7F4EC">Mario Ruiz</text>
    <text x="64" y="105" class="small" font-size="18" fill="#B8B0A3">Globalizame · automatización que contesta</text>
    <text x="1014" y="88" text-anchor="end" class="display" font-size="35" fill="#F7F4EC">07</text>
    <rect x="916" y="107" width="98" height="8" rx="4" fill="#8DFF24"/>
  </g>
    <text x="65" y="255" class="condensed" font-size="82">EL <tspan fill="#8DFF24">40%</tspan></text>
    <text x="65" y="344" class="condensed" font-size="82">ENTRA FUERA</text>
    <text x="65" y="433" class="condensed" font-size="82">DE HORARIO</text>
    <text x="70" y="512" class="body" font-size="31" fill="#B8B0A3"><tspan x="70" dy="0">Un agente de voz puede cogerlo 24/7</tspan></text>
    <g transform="translate(540 870)" filter="url(#softShadow)">
      <circle r="278" fill="#111" stroke="#303030" stroke-width="58"/>
      <circle r="278" fill="none" stroke="#8DFF24" stroke-width="58" stroke-dasharray="699 1048" transform="rotate(-90)"/>
      <line x1="0" y1="-350" x2="0" y2="-316" stroke="#8DFF24" stroke-width="6" transform="rotate(0)"/><line x1="0" y1="-350" x2="0" y2="-316" stroke="#8DFF24" stroke-width="6" transform="rotate(15)"/><line x1="0" y1="-350" x2="0" y2="-316" stroke="#8DFF24" stroke-width="6" transform="rotate(30)"/><line x1="0" y1="-350" x2="0" y2="-316" stroke="#8DFF24" stroke-width="6" transform="rotate(45)"/><line x1="0" y1="-350" x2="0" y2="-316" stroke="#8DFF24" stroke-width="6" transform="rotate(60)"/><line x1="0" y1="-350" x2="0" y2="-316" stroke="#8DFF24" stroke-width="6" transform="rotate(75)"/><line x1="0" y1="-350" x2="0" y2="-316" stroke="#8DFF24" stroke-width="6" transform="rotate(90)"/><line x1="0" y1="-350" x2="0" y2="-316" stroke="#8DFF24" stroke-width="6" transform="rotate(105)"/><line x1="0" y1="-350" x2="0" y2="-316" stroke="#8DFF24" stroke-width="6" transform="rotate(120)"/><line x1="0" y1="-350" x2="0" y2="-316" stroke="#8DFF24" stroke-width="6" transform="rotate(135)"/><line x1="0" y1="-350" x2="0" y2="-316" stroke="#B8B0A3" stroke-width="6" transform="rotate(150)"/><line x1="0" y1="-350" x2="0" y2="-316" stroke="#B8B0A3" stroke-width="6" transform="rotate(165)"/><line x1="0" y1="-350" x2="0" y2="-316" stroke="#B8B0A3" stroke-width="6" transform="rotate(180)"/><line x1="0" y1="-350" x2="0" y2="-316" stroke="#B8B0A3" stroke-width="6" transform="rotate(195)"/><line x1="0" y1="-350" x2="0" y2="-316" stroke="#B8B0A3" stroke-width="6" transform="rotate(210)"/><line x1="0" y1="-350" x2="0" y2="-316" stroke="#B8B0A3" stroke-width="6" transform="rotate(225)"/><line x1="0" y1="-350" x2="0" y2="-316" stroke="#B8B0A3" stroke-width="6" transform="rotate(240)"/><line x1="0" y1="-350" x2="0" y2="-316" stroke="#B8B0A3" stroke-width="6" transform="rotate(255)"/><line x1="0" y1="-350" x2="0" y2="-316" stroke="#B8B0A3" stroke-width="6" transform="rotate(270)"/><line x1="0" y1="-350" x2="0" y2="-316" stroke="#B8B0A3" stroke-width="6" transform="rotate(285)"/><line x1="0" y1="-350" x2="0" y2="-316" stroke="#B8B0A3" stroke-width="6" transform="rotate(300)"/><line x1="0" y1="-350" x2="0" y2="-316" stroke="#B8B0A3" stroke-width="6" transform="rotate(315)"/><line x1="0" y1="-350" x2="0" y2="-316" stroke="#B8B0A3" stroke-width="6" transform="rotate(330)"/><line x1="0" y1="-350" x2="0" y2="-316" stroke="#B8B0A3" stroke-width="6" transform="rotate(345)"/>
      <text y="36" text-anchor="middle" class="display accent" font-size="138">24/7</text>
    </g>
    <text x="64" y="1238" class="small" font-size="22">Dato sectorial · 2026</text>
  </svg>