<svg xmlns="http://www.w3.org/2000/svg" width="1080" height="1350" viewBox="0 0 1080 1350">
  <style>
  .display{font-family:"Aptos Display",Arial,sans-serif;font-weight:800;letter-spacing:-3px;fill:#F5F5F2}
  .headline{font-family:"Aptos Display",Arial,sans-serif;font-weight:750;letter-spacing:-2px;fill:#F5F5F2}
  .body{font-family:Aptos,Arial,sans-serif;font-weight:500;fill:#F5F5F2}
  .meta{font-family:Aptos,Arial,sans-serif;font-size:22px;font-weight:500;fill:#F5F5F2}
  .strong{font-weight:700}.muted{fill:#A7A7A2}.green{fill:#86CA28}
  .count{font-family:"Aptos Display",Arial,sans-serif;font-size:34px;font-weight:800;fill:#F5F5F2}
  .source{font-family:Aptos,Arial,sans-serif;font-size:19px;fill:#A7A7A2}
  .line{stroke:#86CA28;stroke-width:5;fill:none}.dim{stroke:#444444;stroke-width:4;fill:none}
  </style><rect width="1080" height="1350" fill="#232323"/>
  <rect x="40" y="40" width="1000" height="1270" fill="none" stroke="#444444"/>
  <text x="88" y="91" class="meta strong">Mario Ruiz</text>
  <text x="88" y="120" class="meta muted">Founder · Globalizame</text>
  <text x="992" y="96" text-anchor="end" class="count">02</text>
  <rect x="924" y="116" width="68" height="4" fill="#86CA28"/>
  <text x="96" y="256" text-anchor="start" class="headline" font-size="78">Es temporada alta</text>
  <text x="96" y="365.88" class="body muted" font-size="38"><tspan x="96" dy="0">Entran más llamadas. Tú tienes las dos</tspan><tspan x="96" dy="48">manos ocupadas.</tspan></text><g transform="translate(112 470) scale(1.45)">
    <path d="M35 8 C15 8 6 24 12 44 L42 139 C48 159 65 169 84 160 L113 146 C128 139 133 122 124 109 L105 82 C98 72 86 68 75 74 L61 81 C55 68 50 55 47 42 L62 35 C74 29 78 17 70 7 Z" fill="#F5F5F2"/>
    <path d="M113 146 C158 205 220 235 286 222" class="line"/>
  </g>
        <g opacity=".36" transform="translate(600 500)">
          <rect x="0" y="0" width="310" height="22" fill="#A7A7A2"/>
          <circle cx="52" cy="154" r="48" fill="none" stroke="#A7A7A2" stroke-width="18"/>
          <circle cx="245" cy="154" r="48" fill="none" stroke="#A7A7A2" stroke-width="18"/>
          <path d="M50 105 L112 30 M245 105 L182 30" stroke="#A7A7A2" stroke-width="24"/>
        </g>
        <path d="M312 486 Q380 430 445 486 M330 530 Q380 490 430 530" class="line"/>
  </svg>