<svg xmlns="http://www.w3.org/2000/svg" width="1080" height="1350" viewBox="0 0 1080 1350" fill="#F7F4EC">
    <defs>
    <radialGradient id="glow" cx="50%" cy="42%" r="70%">
      <stop offset="0%" stop-color="#8DFF24" stop-opacity=".55"/>
      <stop offset="42%" stop-color="#6129FF" stop-opacity=".24"/>
      <stop offset="100%" stop-color="#070707" stop-opacity="0"/>
    </radialGradient>
    <linearGradient id="blueDrench" x1="0" y1="0" x2="1" y2="1">
      <stop offset="0%" stop-color="#008CEB"/>
      <stop offset="58%" stop-color="#00A7FF"/>
      <stop offset="100%" stop-color="#0053B8"/>
    </linearGradient>
    <linearGradient id="paperFade" x1="0" y1="0" x2="0" y2="1">
      <stop offset="0%" stop-color="#F8F6EF"/>
      <stop offset="100%" stop-color="#D9D1C4"/>
    </linearGradient>
    <filter id="softShadow" x="-30%" y="-30%" width="160%" height="160%">
      <feDropShadow dx="0" dy="34" stdDeviation="34" flood-color="#000" flood-opacity=".55"/>
    </filter>
    <filter id="hardShadow" x="-20%" y="-20%" width="150%" height="150%">
      <feDropShadow dx="18" dy="24" stdDeviation="0" flood-color="#000" flood-opacity=".25"/>
    </filter>
    <filter id="grain">
      <feTurbulence type="fractalNoise" baseFrequency=".9" numOctaves="3" seed="12"/>
      <feColorMatrix type="saturate" values="0"/>
      <feComponentTransfer><feFuncA type="table" tableValues="0 .12"/></feComponentTransfer>
    </filter>
    <pattern id="grid" width="72" height="72" patternUnits="userSpaceOnUse">
      <path d="M72 0H0V72" fill="none" stroke="#FFFFFF" stroke-opacity=".12" stroke-width="1"/>
    </pattern>
  </defs><style>
    .display{font-family:"Arial Black","Impact","Aptos Display",Arial,sans-serif;font-weight:900;letter-spacing:-.055em}
    .condensed{font-family:"Arial Narrow","Roboto Condensed","Aptos",Arial,sans-serif;font-weight:900;letter-spacing:-.04em}
    .body{font-family:Aptos,Arial,sans-serif;font-weight:600}
    .small{font-family:Aptos,Arial,sans-serif;font-weight:700}
    .accent{fill:#8DFF24}
    .dark{fill:#070707}
    .paper{fill:#EDE8DA}
    .stroke{stroke:#8DFF24;stroke-width:10;fill:none;stroke-linecap:round;stroke-linejoin:round}
  </style><rect width="1080" height="1350" fill="#070707"/><circle cx="740" cy="470" r="520" fill="url(#glow)" opacity=".72"/><rect width="1080" height="1350" filter="url(#grain)" opacity=".62"/><g>
    <text x="64" y="74" class="body" font-size="25" fill="#F7F4EC">Mario Ruiz</text>
    <text x="64" y="105" class="small" font-size="18" fill="#B8B0A3">Globalizame · automatización que contesta</text>
    <text x="1014" y="88" text-anchor="end" class="display" font-size="35" fill="#F7F4EC">04</text>
    <rect x="916" y="107" width="98" height="8" rx="4" fill="#8DFF24"/>
  </g>
    <text x="65" y="262" class="condensed" font-size="88">43 DE CADA 100</text>
    <text x="65" y="352" class="condensed" font-size="88">SIN CONTESTAR</text>
    <text x="70" y="430" class="body" font-size="31" fill="#B8B0A3"><tspan x="70" dy="0">En un restaurante</tspan></text>
    <g transform="translate(92 545)" filter="url(#softShadow)">
      <rect x="0" y="0" width="895" height="565" rx="44" fill="#111" stroke="#252525" stroke-width="3"/>
      <rect x="56" y="60" width="48" height="28" rx="7" fill="#8DFF24"/><rect x="134" y="60" width="48" height="28" rx="7" fill="#8DFF24"/><rect x="212" y="60" width="48" height="28" rx="7" fill="#8DFF24"/><rect x="290" y="60" width="48" height="28" rx="7" fill="#8DFF24"/><rect x="368" y="60" width="48" height="28" rx="7" fill="#8DFF24"/><rect x="446" y="60" width="48" height="28" rx="7" fill="#8DFF24"/><rect x="524" y="60" width="48" height="28" rx="7" fill="#8DFF24"/><rect x="602" y="60" width="48" height="28" rx="7" fill="#8DFF24"/><rect x="680" y="60" width="48" height="28" rx="7" fill="#8DFF24"/><rect x="758" y="60" width="48" height="28" rx="7" fill="#8DFF24"/><rect x="56" y="106" width="48" height="28" rx="7" fill="#8DFF24"/><rect x="134" y="106" width="48" height="28" rx="7" fill="#8DFF24"/><rect x="212" y="106" width="48" height="28" rx="7" fill="#8DFF24"/><rect x="290" y="106" width="48" height="28" rx="7" fill="#8DFF24"/><rect x="368" y="106" width="48" height="28" rx="7" fill="#8DFF24"/><rect x="446" y="106" width="48" height="28" rx="7" fill="#8DFF24"/><rect x="524" y="106" width="48" height="28" rx="7" fill="#8DFF24"/><rect x="602" y="106" width="48" height="28" rx="7" fill="#8DFF24"/><rect x="680" y="106" width="48" height="28" rx="7" fill="#8DFF24"/><rect x="758" y="106" width="48" height="28" rx="7" fill="#8DFF24"/><rect x="56" y="152" width="48" height="28" rx="7" fill="#8DFF24"/><rect x="134" y="152" width="48" height="28" rx="7" fill="#8DFF24"/><rect x="212" y="152" width="48" height="28" rx="7" fill="#8DFF24"/><rect x="290" y="152" width="48" height="28" rx="7" fill="#8DFF24"/><rect x="368" y="152" width="48" height="28" rx="7" fill="#8DFF24"/><rect x="446" y="152" width="48" height="28" rx="7" fill="#8DFF24"/><rect x="524" y="152" width="48" height="28" rx="7" fill="#8DFF24"/><rect x="602" y="152" width="48" height="28" rx="7" fill="#8DFF24"/><rect x="680" y="152" width="48" height="28" rx="7" fill="#8DFF24"/><rect x="758" y="152" width="48" height="28" rx="7" fill="#8DFF24"/><rect x="56" y="198" width="48" height="28" rx="7" fill="#8DFF24"/><rect x="134" y="198" width="48" height="28" rx="7" fill="#8DFF24"/><rect x="212" y="198" width="48" height="28" rx="7" fill="#8DFF24"/><rect x="290" y="198" width="48" height="28" rx="7" fill="#8DFF24"/><rect x="368" y="198" width="48" height="28" rx="7" fill="#8DFF24"/><rect x="446" y="198" width="48" height="28" rx="7" fill="#8DFF24"/><rect x="524" y="198" width="48" height="28" rx="7" fill="#8DFF24"/><rect x="602" y="198" width="48" height="28" rx="7" fill="#8DFF24"/><rect x="680" y="198" width="48" height="28" rx="7" fill="#8DFF24"/><rect x="758" y="198" width="48" height="28" rx="7" fill="#8DFF24"/><rect x="56" y="244" width="48" height="28" rx="7" fill="#8DFF24"/><rect x="134" y="244" width="48" height="28" rx="7" fill="#8DFF24"/><rect x="212" y="244" width="48" height="28" rx="7" fill="#8DFF24"/><rect x="290" y="244" width="48" height="28" rx="7" fill="#3D3D3D"/><rect x="368" y="244" width="48" height="28" rx="7" fill="#3D3D3D"/><rect x="446" y="244" width="48" height="28" rx="7" fill="#3D3D3D"/><rect x="524" y="244" width="48" height="28" rx="7" fill="#3D3D3D"/><rect x="602" y="244" width="48" height="28" rx="7" fill="#3D3D3D"/><rect x="680" y="244" width="48" height="28" rx="7" fill="#3D3D3D"/><rect x="758" y="244" width="48" height="28" rx="7" fill="#3D3D3D"/><rect x="56" y="290" width="48" height="28" rx="7" fill="#3D3D3D"/><rect x="134" y="290" width="48" height="28" rx="7" fill="#3D3D3D"/><rect x="212" y="290" width="48" height="28" rx="7" fill="#3D3D3D"/><rect x="290" y="290" width="48" height="28" rx="7" fill="#3D3D3D"/><rect x="368" y="290" width="48" height="28" rx="7" fill="#3D3D3D"/><rect x="446" y="290" width="48" height="28" rx="7" fill="#3D3D3D"/><rect x="524" y="290" width="48" height="28" rx="7" fill="#3D3D3D"/><rect x="602" y="290" width="48" height="28" rx="7" fill="#3D3D3D"/><rect x="680" y="290" width="48" height="28" rx="7" fill="#3D3D3D"/><rect x="758" y="290" width="48" height="28" rx="7" fill="#3D3D3D"/><rect x="56" y="336" width="48" height="28" rx="7" fill="#3D3D3D"/><rect x="134" y="336" width="48" height="28" rx="7" fill="#3D3D3D"/><rect x="212" y="336" width="48" height="28" rx="7" fill="#3D3D3D"/><rect x="290" y="336" width="48" height="28" rx="7" fill="#3D3D3D"/><rect x="368" y="336" width="48" height="28" rx="7" fill="#3D3D3D"/><rect x="446" y="336" width="48" height="28" rx="7" fill="#3D3D3D"/><rect x="524" y="336" width="48" height="28" rx="7" fill="#3D3D3D"/><rect x="602" y="336" width="48" height="28" rx="7" fill="#3D3D3D"/><rect x="680" y="336" width="48" height="28" rx="7" fill="#3D3D3D"/><rect x="758" y="336" width="48" height="28" rx="7" fill="#3D3D3D"/><rect x="56" y="382" width="48" height="28" rx="7" fill="#3D3D3D"/><rect x="134" y="382" width="48" height="28" rx="7" fill="#3D3D3D"/><rect x="212" y="382" width="48" height="28" rx="7" fill="#3D3D3D"/><rect x="290" y="382" width="48" height="28" rx="7" fill="#3D3D3D"/><rect x="368" y="382" width="48" height="28" rx="7" fill="#3D3D3D"/><rect x="446" y="382" width="48" height="28" rx="7" fill="#3D3D3D"/><rect x="524" y="382" width="48" height="28" rx="7" fill="#3D3D3D"/><rect x="602" y="382" width="48" height="28" rx="7" fill="#3D3D3D"/><rect x="680" y="382" width="48" height="28" rx="7" fill="#3D3D3D"/><rect x="758" y="382" width="48" height="28" rx="7" fill="#3D3D3D"/><rect x="56" y="428" width="48" height="28" rx="7" fill="#3D3D3D"/><rect x="134" y="428" width="48" height="28" rx="7" fill="#3D3D3D"/><rect x="212" y="428" width="48" height="28" rx="7" fill="#3D3D3D"/><rect x="290" y="428" width="48" height="28" rx="7" fill="#3D3D3D"/><rect x="368" y="428" width="48" height="28" rx="7" fill="#3D3D3D"/><rect x="446" y="428" width="48" height="28" rx="7" fill="#3D3D3D"/><rect x="524" y="428" width="48" height="28" rx="7" fill="#3D3D3D"/><rect x="602" y="428" width="48" height="28" rx="7" fill="#3D3D3D"/><rect x="680" y="428" width="48" height="28" rx="7" fill="#3D3D3D"/><rect x="758" y="428" width="48" height="28" rx="7" fill="#3D3D3D"/><rect x="56" y="474" width="48" height="28" rx="7" fill="#3D3D3D"/><rect x="134" y="474" width="48" height="28" rx="7" fill="#3D3D3D"/><rect x="212" y="474" width="48" height="28" rx="7" fill="#3D3D3D"/><rect x="290" y="474" width="48" height="28" rx="7" fill="#3D3D3D"/><rect x="368" y="474" width="48" height="28" rx="7" fill="#3D3D3D"/><rect x="446" y="474" width="48" height="28" rx="7" fill="#3D3D3D"/><rect x="524" y="474" width="48" height="28" rx="7" fill="#3D3D3D"/><rect x="602" y="474" width="48" height="28" rx="7" fill="#3D3D3D"/><rect x="680" y="474" width="48" height="28" rx="7" fill="#3D3D3D"/><rect x="758" y="474" width="48" height="28" rx="7" fill="#3D3D3D"/>
      <text x="700" y="496" class="display accent" font-size="104">43%</text>
    </g>
    <text x="64" y="1238" class="small" font-size="22">Fuente sectorial · 2026</text>
  </svg>