<svg xmlns="http://www.w3.org/2000/svg" width="1080" height="1350" viewBox="0 0 1080 1350">
  <style>
  .display{font-family:"Aptos Display",Arial,sans-serif;font-weight:800;letter-spacing:-3px;fill:#F5F5F2}
  .headline{font-family:"Aptos Display",Arial,sans-serif;font-weight:750;letter-spacing:-2px;fill:#F5F5F2}
  .body{font-family:Aptos,Arial,sans-serif;font-weight:500;fill:#F5F5F2}
  .meta{font-family:Aptos,Arial,sans-serif;font-size:22px;font-weight:500;fill:#F5F5F2}
  .strong{font-weight:700}.muted{fill:#A7A7A2}.green{fill:#86CA28}
  .count{font-family:"Aptos Display",Arial,sans-serif;font-size:34px;font-weight:800;fill:#F5F5F2}
  .source{font-family:Aptos,Arial,sans-serif;font-size:19px;fill:#A7A7A2}
  .line{stroke:#86CA28;stroke-width:5;fill:none}.dim{stroke:#444444;stroke-width:4;fill:none}
  </style><rect width="1080" height="1350" fill="#232323"/>
  <rect x="40" y="40" width="1000" height="1270" fill="none" stroke="#444444"/>
  <text x="88" y="91" class="meta strong">Mario Ruiz</text>
  <text x="88" y="120" class="meta muted">Founder · Globalizame</text>
  <text x="992" y="96" text-anchor="end" class="count">07</text>
  <rect x="924" y="116" width="68" height="4" fill="#86CA28"/>
  <text x="96" y="256" text-anchor="start" class="headline" font-size="78">El <tspan class="green">40%</tspan></text>
<text x="96" y="330.88" text-anchor="start" class="headline" font-size="78">entra fuera de horario</text>
  <text x="96" y="440.76" class="body muted" font-size="38"><tspan x="96" dy="0">Un agente de voz puede cogerlo 24/7</tspan></text><g transform="translate(540 760)">
        <circle r="260" fill="none" stroke="#444444" stroke-width="48"/>
        <circle r="260" fill="none" stroke="#86CA28" stroke-width="48" stroke-dasharray="653 981" transform="rotate(-90)"/>
        <line x1="0" y1="-302" x2="0" y2="-280" stroke="#86CA28" stroke-width="4" transform="rotate(0)"/><line x1="0" y1="-302" x2="0" y2="-280" stroke="#86CA28" stroke-width="4" transform="rotate(15)"/><line x1="0" y1="-302" x2="0" y2="-280" stroke="#86CA28" stroke-width="4" transform="rotate(30)"/><line x1="0" y1="-302" x2="0" y2="-280" stroke="#86CA28" stroke-width="4" transform="rotate(45)"/><line x1="0" y1="-302" x2="0" y2="-280" stroke="#86CA28" stroke-width="4" transform="rotate(60)"/><line x1="0" y1="-302" x2="0" y2="-280" stroke="#86CA28" stroke-width="4" transform="rotate(75)"/><line x1="0" y1="-302" x2="0" y2="-280" stroke="#86CA28" stroke-width="4" transform="rotate(90)"/><line x1="0" y1="-302" x2="0" y2="-280" stroke="#86CA28" stroke-width="4" transform="rotate(105)"/><line x1="0" y1="-302" x2="0" y2="-280" stroke="#86CA28" stroke-width="4" transform="rotate(120)"/><line x1="0" y1="-302" x2="0" y2="-280" stroke="#86CA28" stroke-width="4" transform="rotate(135)"/><line x1="0" y1="-302" x2="0" y2="-280" stroke="#A7A7A2" stroke-width="4" transform="rotate(150)"/><line x1="0" y1="-302" x2="0" y2="-280" stroke="#A7A7A2" stroke-width="4" transform="rotate(165)"/><line x1="0" y1="-302" x2="0" y2="-280" stroke="#A7A7A2" stroke-width="4" transform="rotate(180)"/><line x1="0" y1="-302" x2="0" y2="-280" stroke="#A7A7A2" stroke-width="4" transform="rotate(195)"/><line x1="0" y1="-302" x2="0" y2="-280" stroke="#A7A7A2" stroke-width="4" transform="rotate(210)"/><line x1="0" y1="-302" x2="0" y2="-280" stroke="#A7A7A2" stroke-width="4" transform="rotate(225)"/><line x1="0" y1="-302" x2="0" y2="-280" stroke="#A7A7A2" stroke-width="4" transform="rotate(240)"/><line x1="0" y1="-302" x2="0" y2="-280" stroke="#A7A7A2" stroke-width="4" transform="rotate(255)"/><line x1="0" y1="-302" x2="0" y2="-280" stroke="#A7A7A2" stroke-width="4" transform="rotate(270)"/><line x1="0" y1="-302" x2="0" y2="-280" stroke="#A7A7A2" stroke-width="4" transform="rotate(285)"/><line x1="0" y1="-302" x2="0" y2="-280" stroke="#A7A7A2" stroke-width="4" transform="rotate(300)"/><line x1="0" y1="-302" x2="0" y2="-280" stroke="#A7A7A2" stroke-width="4" transform="rotate(315)"/><line x1="0" y1="-302" x2="0" y2="-280" stroke="#A7A7A2" stroke-width="4" transform="rotate(330)"/><line x1="0" y1="-302" x2="0" y2="-280" stroke="#A7A7A2" stroke-width="4" transform="rotate(345)"/>
        <text y="22" text-anchor="middle" class="display green" font-size="105">24/7</text>
      </g><text x="96" y="1237" class="source">Dato sectorial · 2026</text>
  </svg>