<svg xmlns="http://www.w3.org/2000/svg" width="1080" height="1350" viewBox="0 0 1080 1350" fill="#F7F4EC">
    <defs>
    <radialGradient id="glow" cx="50%" cy="42%" r="70%">
      <stop offset="0%" stop-color="#8DFF24" stop-opacity=".55"/>
      <stop offset="42%" stop-color="#6129FF" stop-opacity=".24"/>
      <stop offset="100%" stop-color="#070707" stop-opacity="0"/>
    </radialGradient>
    <linearGradient id="blueDrench" x1="0" y1="0" x2="1" y2="1">
      <stop offset="0%" stop-color="#008CEB"/>
      <stop offset="58%" stop-color="#00A7FF"/>
      <stop offset="100%" stop-color="#0053B8"/>
    </linearGradient>
    <linearGradient id="paperFade" x1="0" y1="0" x2="0" y2="1">
      <stop offset="0%" stop-color="#F8F6EF"/>
      <stop offset="100%" stop-color="#D9D1C4"/>
    </linearGradient>
    <filter id="softShadow" x="-30%" y="-30%" width="160%" height="160%">
      <feDropShadow dx="0" dy="34" stdDeviation="34" flood-color="#000" flood-opacity=".55"/>
    </filter>
    <filter id="hardShadow" x="-20%" y="-20%" width="150%" height="150%">
      <feDropShadow dx="18" dy="24" stdDeviation="0" flood-color="#000" flood-opacity=".25"/>
    </filter>
    <filter id="grain">
      <feTurbulence type="fractalNoise" baseFrequency=".9" numOctaves="3" seed="12"/>
      <feColorMatrix type="saturate" values="0"/>
      <feComponentTransfer><feFuncA type="table" tableValues="0 .12"/></feComponentTransfer>
    </filter>
    <pattern id="grid" width="72" height="72" patternUnits="userSpaceOnUse">
      <path d="M72 0H0V72" fill="none" stroke="#FFFFFF" stroke-opacity=".12" stroke-width="1"/>
    </pattern>
  </defs><style>
    .display{font-family:"Arial Black","Impact","Aptos Display",Arial,sans-serif;font-weight:900;letter-spacing:-.055em}
    .condensed{font-family:"Arial Narrow","Roboto Condensed","Aptos",Arial,sans-serif;font-weight:900;letter-spacing:-.04em}
    .body{font-family:Aptos,Arial,sans-serif;font-weight:600}
    .small{font-family:Aptos,Arial,sans-serif;font-weight:700}
    .accent{fill:#8DFF24}
    .dark{fill:#070707}
    .paper{fill:#EDE8DA}
    .stroke{stroke:#8DFF24;stroke-width:10;fill:none;stroke-linecap:round;stroke-linejoin:round}
  </style><rect width="1080" height="1350" fill="url(#paperFade)"/><rect width="1080" height="1350" fill="url(#grid)" opacity=".26"/><rect width="1080" height="1350" filter="url(#grain)" opacity=".55"/><g>
    <text x="64" y="74" class="body" font-size="25" fill="#070707">Mario Ruiz</text>
    <text x="64" y="105" class="small" font-size="18" fill="#2A2A2A">Globalizame · automatización que contesta</text>
    <text x="1014" y="88" text-anchor="end" class="display" font-size="35" fill="#070707">05</text>
    <rect x="916" y="107" width="98" height="8" rx="4" fill="#8DFF24"/>
  </g>
    <text x="62" y="260" class="condensed" font-size="94" fill="#070707">85 DE CADA 100</text>
    <text x="62" y="352" class="condensed" font-size="94" fill="#070707">NO VUELVEN</text>
    <text x="67" y="430" class="body" font-size="31" fill="#222"><tspan x="67" dy="0">Se van a la competencia</tspan></text>
    <g transform="translate(78 610)">
      <rect x="0" y="0" width="340" height="350" rx="28" fill="#151515"/>
      <rect x="34" y="74" width="272" height="230" fill="#333"/>
      <text x="170" y="54" text-anchor="middle" class="body" font-size="28">TU NEGOCIO</text>
      <rect x="590" y="-35" width="340" height="420" rx="28" fill="#8DFF24" filter="url(#softShadow)"/>
      <rect x="625" y="58" width="270" height="260" fill="#111"/>
      <text x="760" y="31" text-anchor="middle" class="body dark" font-size="28">COMPETENCIA</text>
      <path d="M285 155C420 10 548 7 676 148" stroke="#070707" stroke-width="12" fill="none"/>
      <path d="M638 116l38 32-50 14" stroke="#070707" stroke-width="12" fill="none"/>
      <circle cx="345" cy="120" r="16" fill="#070707"/><circle cx="390" cy="85" r="17" fill="#070707"/><circle cx="435" cy="59.3782217350893" r="18" fill="#070707"/><circle cx="480" cy="50" r="19" fill="#070707"/><circle cx="525" cy="59.37822173508929" r="20" fill="#070707"/><circle cx="570" cy="85" r="21" fill="#070707"/><circle cx="615" cy="119.99999999999999" r="22" fill="#070707"/>
    </g>
    <text x="64" y="1238" class="small" font-size="22" fill="#333">Fuente: gestiondellamadas.com</text>
  </svg>