<svg xmlns="http://www.w3.org/2000/svg" width="1080" height="1350" viewBox="0 0 1080 1350">
  <style>
  .display{font-family:"Aptos Display",Arial,sans-serif;font-weight:800;letter-spacing:-3px;fill:#F5F5F2}
  .headline{font-family:"Aptos Display",Arial,sans-serif;font-weight:750;letter-spacing:-2px;fill:#F5F5F2}
  .body{font-family:Aptos,Arial,sans-serif;font-weight:500;fill:#F5F5F2}
  .meta{font-family:Aptos,Arial,sans-serif;font-size:22px;font-weight:500;fill:#F5F5F2}
  .strong{font-weight:700}.muted{fill:#A7A7A2}.green{fill:#86CA28}
  .count{font-family:"Aptos Display",Arial,sans-serif;font-size:34px;font-weight:800;fill:#F5F5F2}
  .source{font-family:Aptos,Arial,sans-serif;font-size:19px;fill:#A7A7A2}
  .line{stroke:#86CA28;stroke-width:5;fill:none}.dim{stroke:#444444;stroke-width:4;fill:none}
  </style><rect width="1080" height="1350" fill="#232323"/>
  <rect x="40" y="40" width="1000" height="1270" fill="none" stroke="#444444"/>
  <text x="88" y="91" class="meta strong">Mario Ruiz</text>
  <text x="88" y="120" class="meta muted">Founder · Globalizame</text>
  <text x="992" y="96" text-anchor="end" class="count">05</text>
  <rect x="924" y="116" width="68" height="4" fill="#86CA28"/>
  <text x="96" y="256" text-anchor="start" class="headline" font-size="78">85 de cada 100</text>
<text x="96" y="330.88" text-anchor="start" class="headline" font-size="78">no vuelven</text>
  <text x="96" y="440.76" class="body muted" font-size="38"><tspan x="96" dy="0">Se van a la competencia</tspan></text><g transform="translate(110 555)">
        <rect x="0" y="0" width="270" height="330" fill="#191919" stroke="#444444" stroke-width="4"/>
        <rect x="62" y="126" width="145" height="204" fill="#444444"/>
        <text x="135" y="72" text-anchor="middle" class="body muted" font-size="30">TU NEGOCIO</text>
        <rect x="585" y="0" width="270" height="330" fill="#191919" stroke="#86CA28" stroke-width="4"/>
        <rect x="647" y="126" width="145" height="204" fill="#86CA28"/>
        <text x="720" y="72" text-anchor="middle" class="body" font-size="30">COMPETENCIA</text>
        <path d="M245 190 C390 70 480 70 625 190" class="line"/>
        <path d="M590 150 L625 190 575 198" class="line"/>
        <circle cx="300" cy="160" r="15" fill="#F5F5F2"/><circle cx="348" cy="121" r="15" fill="#F5F5F2"/><circle cx="396" cy="92.45001850481378" r="15" fill="#F5F5F2"/><circle cx="444" cy="82" r="15" fill="#F5F5F2"/><circle cx="492" cy="92.45001850481378" r="15" fill="#F5F5F2"/><circle cx="540" cy="121" r="15" fill="#F5F5F2"/><circle cx="588" cy="160" r="15" fill="#F5F5F2"/>
      </g><text x="96" y="1237" class="source">Fuente: gestiondellamadas.com</text>
  </svg>